{
    "asset" : {
        "generator" : "Khronos glTF Blender I/O v1.3.48",
        "version" : "2.0"
    },
    "scene" : 0,
    "scenes" : [
        {
            "name" : "Scene",
            "nodes" : [
                0
            ]
        }
    ],
    "nodes" : [
        {
            "mesh" : 0,
            "name" : "Plane",
            "rotation" : [
                0.5,
                0.5,
                0.5,
                0.4999999701976776
            ]
        }
    ],
    "meshes" : [
        {
            "name" : "Plane",
            "primitives" : [
                {
                    "attributes" : {
                        "POSITION" : 0
                    },
                    "indices" : 1
                }
            ]
        }
    ],
    "accessors" : [
        {
            "bufferView" : 0,
            "componentType" : 5126,
            "count" : 11,
            "max" : [
                0,
                0.05999999865889549,
                0.0022410000674426556
            ],
            "min" : [
                0,
                0,
                -0.0022410000674426556
            ],
            "type" : "VEC3"
        },
        {
            "bufferView" : 1,
            "componentType" : 5123,
            "count" : 27,
            "type" : "SCALAR"
        }
    ],
    "bufferViews" : [
        {
            "buffer" : 0,
            "byteLength" : 132,
            "byteOffset" : 0
        },
        {
            "buffer" : 0,
            "byteLength" : 54,
            "byteOffset" : 132
        }
    ],
    "buffers" : [
        {
            "byteLength" : 188,
            "uri" : "scene.bin"
        }
    ]
}
